<?xml version="1.0" encoding="UTF-8" standalone="no"?>
<svg width="50px" height="50px" viewBox="0 0 50 50" version="1.1" xmlns="http://www.w3.org/2000/svg" xmlns:xlink="http://www.w3.org/1999/xlink">
    <!-- Generator: Sketch 50.2 (55047) - http://www.bohemiancoding.com/sketch -->
    <title>Group 12</title>
    <desc>Created with Sketch.</desc>
    <defs></defs>
    <g id="Page-1" stroke="none" stroke-width="1" fill="none" fill-rule="evenodd">
        <g id="Artboard-3" transform="translate(-659.000000, -696.000000)">
            <g id="16px-dar-ooutline-copy" transform="translate(659.000000, 696.000000)">
                <g id="Group-12">
                    <g id="Group-13" fill="#E6E6E6">
                        <g id="Group-6">
                            <circle id="Oval-Copy" cx="25" cy="25" r="25"></circle>
                        </g>
                    </g>
                    <g id="Group" transform="translate(17.000000, 17.000000)">
                        <rect id="Rectangle" x="0" y="0" width="16" height="16"></rect>
                        <g id="Group-Copy" transform="translate(0.000000, 0.571429)" fill="#000000" opacity="0.7">
                            <g id="if_icon_5_thumb_down_329407" transform="translate(8.000000, 7.428571) scale(1, -1) translate(-8.000000, -7.428571) ">
                                <path d="M4.41750842,7.64162128 C5.75530289,7.97676192 6.58477975,8.72088437 7.21885522,9.81517303 C8.02693603,11.2097604 7.48821549,12.8188997 7.74633803,13.0870896 C8.11638682,13.4715711 9.04286017,13.3487759 9.58922559,12.28252 C9.97401416,11.5315883 9.85858586,9.97608696 9.37373737,8.74241349 C11.0470331,8.74241349 12.1424316,8.74241349 12.6599327,8.74241349 C13.2205588,8.74241349 14.0962622,8.68107776 14.3838384,7.83056788 C14.6490065,7.04633028 14.416491,5.58929299 13.8989899,4.34409938 C13.2866882,2.87079982 12.8754209,1.50186335 11.6541766,1.44822538 L7.74633803,1.44822538 L4.41750842,1.44822538 L4.41750842,0 L6.8796988,0 L12.2997655,0 C14.1144781,0.107275954 14.4809013,1.75271542 15.2457912,3.5931677 C15.8922559,5.14866903 16.169633,7.33363662 15.8383838,8.31330967 C15.4791424,9.37577035 14.2760943,10.1906389 13.5757576,10.1906389 C12.9292929,10.1906389 12.1032548,10.1906389 11.0976431,10.1906389 C11.5824916,12.3897959 10.4511785,14.6425909 8.4040404,14.8035049 C7.22127077,14.8964757 6.62626263,14.588953 6.35690236,13.9452972 C6.03312722,13.1716133 6.84175084,11.7997782 5.76430976,10.1906389 C5.00296455,9.05358318 4.41750842,9.06424135 4.41750842,9.06424135 L4.41750842,7.64162128 Z" id="Combined-Shape" fill-rule="nonzero"></path>
                                <path d="M0,0 L4.47138047,0 L4.47138047,9.06424135 L0,9.06424135 L0,0 Z M1.45454545,1.44822538 L1.45454545,7.61601597 L3.01683502,7.61601597 L3.01683502,1.44822538 L1.45454545,1.44822538 Z" id="Combined-Shape"></path>
                            </g>
                        </g>
                    </g>
                </g>
            </g>
        </g>
    </g>
</svg>